# Blender v2.90.0 OBJ File: 'hand.blend'
# www.blender.org
mtllib hand.mtl
o Cube_Cube.001
v 0.250713 0.338690 0.703304
v -0.065886 0.299817 0.609735
v 0.024601 0.323102 0.591654
v 0.114827 0.304733 0.588731
v 0.231630 0.062070 0.454174
v 0.041854 0.221716 0.507121
v 0.157193 0.308595 0.595841
v 0.218768 0.283206 0.867425
v 0.047053 0.355483 1.066688
v -0.095960 0.406327 0.933035
v -0.102540 0.340035 1.097639
v -0.064015 0.327627 1.138600
v -0.232773 0.314652 1.014163
v -0.202212 0.073014 0.585021
v 0.153146 0.011114 0.167088
v 0.001388 -0.108004 -0.683024
v 0.168877 0.024170 -0.847048
v 0.172062 -0.046457 -0.851606
v 0.222217 0.195478 0.596532
v 0.230327 0.001675 0.501669
v -0.132982 0.056558 0.549296
v -0.195947 0.266720 0.996245
v -0.088703 0.002879 -0.932279
v -0.129206 0.152233 0.624420
v -0.062438 0.341592 0.703691
v -0.038112 0.211512 0.534542
v -0.022574 0.322113 0.588284
v 0.030378 0.219261 0.624139
v 0.127479 0.342539 0.709094
v 0.155102 0.083707 0.427625
v 0.160860 0.315581 0.708351
v 0.228712 0.328649 0.870324
v 0.254309 0.333035 0.872421
v 0.105712 0.339833 0.851253
v 0.128605 0.420516 0.887559
v 0.057282 0.352270 0.820948
v 0.050622 0.435012 0.805282
v 0.050388 0.287062 1.070095
v 0.077425 0.274589 1.072914
v -0.002564 0.350603 0.802814
v -0.101186 0.300332 1.047699
v -0.059951 0.275981 1.117720
v -0.019849 0.394194 0.990804
v -0.186799 0.324726 0.718486
v -0.130895 0.329985 0.746640
v -0.116603 0.330137 0.624134
v -0.243431 0.284098 0.969558
v -0.209781 0.400613 0.820452
v -0.215101 0.137077 0.517869
v -0.225504 0.028374 0.540736
v 0.137976 -0.034076 0.218518
v -0.044760 0.010707 0.391822
v -0.060253 -0.062153 0.452918
v 0.036874 0.059721 0.408290
v 0.063606 -0.028549 0.542342
v 0.027249 0.088438 0.236557
v -0.119097 0.039777 -0.878375
v -0.121860 -0.045022 -0.907017
v 0.025595 0.135232 -0.677106
v 0.143573 -0.022866 -0.937200
v -0.296961 0.155319 0.657841
v -0.270482 0.110070 0.498139
v 0.192693 0.223224 0.679185
v 0.180739 0.242227 0.660593
v 0.194243 0.202981 0.562897
v -0.135406 0.189541 0.566451
v -0.028289 0.086590 0.593620
v -0.075340 -0.037946 0.405842
v -0.198589 0.300637 0.638118
v -0.184019 0.349159 0.959798
v -0.254056 0.053201 0.494488
v 0.055888 0.072848 -0.869424
v -0.299499 0.210959 0.596105
v -0.135846 0.103608 0.498033
v -0.331509 0.134134 0.602215
v 0.073970 0.309902 1.102477
v 0.132282 0.362821 0.987851
v 0.280269 0.328159 0.801495
v 0.068421 0.083455 -0.116573
v 0.076682 0.072474 -0.377561
v 0.279287 0.216553 0.972182
v 0.266775 0.259255 0.985027
v 0.287268 0.257564 0.984540
v 0.294933 0.267811 0.926338
vt 0.379792 0.690620
vt 0.372781 0.690601
vt 0.371982 0.690601
vt 0.404352 0.707027
vt 0.399032 0.714038
vt 0.400079 0.714038
vt 0.393795 0.705344
vt 0.387908 0.706531
vt 0.389678 0.713451
vt 0.387479 0.714038
vt 0.393339 0.714038
vt 0.346401 0.711690
vt 0.337552 0.711926
vt 0.340606 0.714038
vt 0.388162 0.714038
vt 0.345708 0.695563
vt 0.335155 0.692872
vt 0.335144 0.710180
vt 0.401029 0.692077
vt 0.392790 0.691284
vt 0.405025 0.692441
vt 0.351885 0.702374
vt 0.360140 0.691008
vt 0.360293 0.646959
vt 0.369325 0.643727
vt 0.358183 0.643727
vt 0.364549 0.731615
vt 0.360448 0.731615
vt 0.380452 0.731615
vt 0.374753 0.643727
vt 0.374753 0.643727
vt 0.369325 0.643727
vt 0.393339 0.714038
vt 0.372195 0.731615
vt 0.358183 0.731615
vt 0.377857 0.731615
vt 0.341858 0.714038
vt 0.346085 0.714038
vt 0.346465 0.714038
vt 0.342787 0.714038
vt 0.352235 0.714038
vt 0.346626 0.714038
vt 0.352238 0.714038
vt 0.361808 0.725756
vt 0.377598 0.725756
vt 0.376475 0.725756
vt 0.372308 0.724192
vt 0.362216 0.724020
vt 0.393339 0.714038
vt 0.388837 0.714038
vt 0.353085 0.714038
vt 0.360883 0.710682
vt 0.377098 0.709973
vt 0.375163 0.714038
vt 0.364238 0.719897
vt 0.378567 0.719897
vt 0.359894 0.719897
vt 0.363494 0.714038
vt 0.380754 0.714038
vt 0.379197 0.719222
vt 0.354336 0.714038
vt 0.377966 0.698433
vt 0.382649 0.691086
vt 0.379918 0.697115
vt 0.378927 0.696651
vt 0.373043 0.649167
vt 0.350015 0.679207
vt 0.394149 0.690601
vt 0.392456 0.690601
vt 0.405057 0.690601
vt 0.361491 0.690601
vt 0.346587 0.690601
vt 0.376116 0.687404
vt 0.369902 0.686351
vt 0.364334 0.687060
vt 0.366459 0.667867
vt 0.368160 0.671021
vt 0.376108 0.668862
vt 0.376352 0.677281
vt 0.381620 0.679762
vt 0.372207 0.667164
vt 0.399595 0.690601
vt 0.405057 0.690601
vt 0.335188 0.690601
vt 0.338675 0.690601
vt 0.394149 0.690601
vt 0.367161 0.690601
vt 0.360795 0.695672
vt 0.361905 0.698031
vt 0.358183 0.679037
vt 0.362462 0.717975
vt 0.372253 0.715785
vt 0.376280 0.719897
vt 0.373798 0.720156
vt 0.361329 0.719897
vt 0.359527 0.725756
vt 0.362371 0.725756
vt 0.375997 0.725756
vt 0.361988 0.729434
vt 0.371266 0.728948
vt 0.378570 0.731615
vt 0.379144 0.643727
vt 0.360671 0.734569
vt 0.376805 0.731615
vt 0.377837 0.666483
vt 0.359488 0.667164
vt 0.359293 0.725756
vt 0.360196 0.714038
vt 0.405057 0.714038
vt 0.359490 0.697084
vt 0.381620 0.650233
vt 0.340606 0.714038
vt 0.403382 0.714038
vt 0.399198 0.714038
vt 0.337791 0.714038
vt 0.358917 0.643727
vt 0.398379 0.714038
vt 0.396014 0.714038
vt 0.399198 0.714038
vt 0.377759 0.719897
vt 0.381620 0.719897
vt 0.348201 0.714038
vt 0.393339 0.714038
vt 0.386996 0.714038
vt 0.386328 0.714038
vt 0.378912 0.690601
vt 0.399595 0.690601
vt 0.364341 0.690601
vt 0.375282 0.667882
vt 0.378863 0.725756
vt 0.375997 0.726831
vt 0.399198 0.714038
vt 0.363465 0.667164
vt 0.358917 0.643727
vt 0.360671 0.734569
vt 0.374802 0.734967
vt 0.376805 0.731615
vt 0.403382 0.714038
vn -0.4758 -0.0812 -0.8758
vn 0.1261 0.3355 -0.9336
vn -0.3406 0.4492 -0.8260
vn -0.5676 0.4230 -0.7064
vn 0.1074 0.6474 -0.7546
vn -0.1345 -0.4883 0.8623
vn -0.0034 0.9713 -0.2380
vn 0.2908 -0.5677 0.7702
vn 0.0342 0.5197 -0.8536
vn 0.4077 0.6231 -0.6674
vn -0.0971 -0.4686 0.8781
vn -0.8255 0.0321 0.5635
vn 0.6259 0.7769 -0.0686
vn 0.7427 0.6360 0.2098
vn 0.1610 0.8661 -0.4733
vn 0.4737 -0.8789 0.0558
vn 0.9994 0.0300 -0.0194
vn -0.2178 -0.9746 -0.0519
vn -0.3724 -0.8763 -0.3055
vn -0.5764 -0.7055 0.4123
vn 0.2813 -0.9560 -0.0830
vn 0.9280 -0.3351 0.1630
vn 0.9617 -0.0343 0.2719
vn -0.1308 0.9214 0.3659
vn 0.5441 -0.2700 0.7944
vn -0.1169 -0.5634 0.8178
vn -0.3624 0.3509 -0.8634
vn -0.1791 0.9836 -0.0197
vn -0.9844 0.1216 -0.1271
vn 0.5655 0.8220 0.0670
vn -0.1834 -0.9405 -0.2862
vn 0.0363 0.7674 -0.6401
vn -0.0747 0.6836 -0.7261
vn 0.9152 -0.1456 0.3758
vn -0.6940 0.7190 0.0381
vn 0.3948 0.8800 -0.2641
vn -0.5322 0.8297 0.1686
vn -0.2229 0.9594 0.1729
vn 0.2267 -0.9726 0.0516
vn -0.7749 0.2248 -0.5908
vn 0.9520 0.0623 -0.2997
vn 0.0505 0.6076 -0.7926
vn -0.1593 0.9314 -0.3272
vn 0.9989 0.0440 0.0161
vn 0.3926 0.9195 0.0179
vn -0.0278 -0.9996 0.0107
vn 0.4826 0.8747 0.0439
vn -0.8433 0.3815 0.3785
vn -0.8628 -0.2200 -0.4551
vn 0.7847 0.4761 0.3969
vn -0.7971 0.0837 0.5980
vn -0.2153 -0.1275 0.9682
vn 0.3286 0.6592 -0.6763
vn -0.3375 0.4978 -0.7989
vn -0.2216 0.6215 -0.7514
vn -0.2954 0.9540 0.0512
vn -0.9957 -0.0294 0.0875
vn -0.4179 -0.7318 0.5383
vn -0.6934 -0.7193 0.0419
vn 0.0636 -0.9565 -0.2848
vn -0.0666 -0.4290 -0.9009
vn 0.4344 0.6756 0.5958
vn -0.5434 -0.6264 0.5589
vn 0.3902 0.8359 -0.3860
vn -0.8300 -0.4474 0.3332
vn -0.9979 -0.0507 -0.0409
vn -0.3586 -0.6196 0.6982
vn 0.7506 0.6037 -0.2685
vn 0.2550 0.9666 0.0269
vn -0.9129 0.1763 0.3682
vn 0.8700 -0.4682 -0.1547
vn -0.9898 -0.0105 0.1424
vn -0.9575 -0.2780 -0.0765
vn -0.5272 -0.8404 -0.1257
vn -0.4241 0.0056 -0.9056
vn 0.1924 -0.9794 0.0609
vn 0.6212 0.4236 -0.6593
vn 0.0411 0.6440 -0.7640
vn 0.3530 0.4795 -0.8034
vn 0.3105 -0.3414 0.8872
vn 0.2595 0.9554 -0.1413
vn -0.1655 -0.8255 0.5395
vn 0.1636 -0.7365 0.6564
vn 0.7013 0.5427 -0.4622
vn -0.4451 -0.5702 0.6905
vn 0.3978 -0.8175 0.4165
vn -0.0374 0.9545 -0.2959
vn -0.3461 0.9374 0.0387
vn -0.1666 0.9856 -0.0286
vn -0.8854 -0.3972 0.2415
vn 0.6184 -0.7848 0.0418
vn 0.8190 -0.5703 -0.0633
vn 0.9070 -0.2146 0.3623
vn 0.4998 0.7996 -0.3329
vn 0.5562 -0.7219 0.4118
vn -0.1265 0.9495 0.2871
vn 0.3523 0.8167 0.4569
vn -0.0881 -0.9631 -0.2545
vn 0.9891 0.0911 0.1154
vn -0.5513 0.7758 -0.3069
vn 0.6345 -0.7146 0.2945
vn -0.1376 -0.9579 -0.2521
vn 0.9732 -0.1874 0.1329
vn -0.1092 0.9181 0.3809
vn 0.7367 0.6672 0.1102
vn -0.2211 0.9009 0.3735
vn -0.3393 -0.5352 0.7736
vn -0.3023 0.4390 -0.8461
vn 0.1982 0.6708 -0.7146
vn -0.3689 0.8053 -0.4642
vn 0.6489 0.2271 0.7261
vn -0.9531 0.3020 0.0209
vn 0.9691 -0.0322 0.2444
vn 0.1545 -0.9802 -0.1238
vn 0.0260 0.5545 -0.8318
vn 0.3746 -0.9263 0.0410
vn -0.6006 0.7978 0.0534
vn 0.3296 0.9232 -0.1977
vn 0.4236 0.7489 -0.5096
vn -0.1178 0.7872 -0.6053
vn -0.8762 -0.4807 0.0336
vn 0.7515 0.6590 -0.0313
vn -0.4696 -0.8828 0.0102
vn -0.0462 -0.6913 0.7211
vn -0.7952 0.2889 -0.5331
vn 0.7549 0.5408 0.3710
vn 0.7682 0.2774 -0.5770
vn 0.0064 -0.4025 0.9154
vn -0.2654 0.6014 -0.7536
vn -0.3694 0.4796 -0.7960
vn -0.1563 -0.6062 0.7798
vn -0.9991 -0.0227 0.0350
vn 0.9584 -0.2833 0.0338
vn -0.8370 0.5438 0.0614
vn -0.9992 0.0206 0.0353
vn 0.0463 -0.9547 -0.2939
vn 0.9986 0.0175 0.0496
vn 0.4557 0.6861 0.5671
vn 0.7763 -0.6261 0.0738
vn -0.7384 -0.3019 0.6030
vn -0.9892 -0.0825 -0.1213
vn -0.9993 0.0107 -0.0356
vn -0.9953 -0.0877 -0.0403
vn -0.8051 -0.0097 0.5931
vn 0.4511 0.7005 0.5529
vn -0.1845 0.8126 0.5528
vn 0.9580 0.0226 -0.2859
vn -0.0480 0.9970 -0.0603
vn 0.9323 -0.2358 -0.2743
vn -0.9877 -0.0516 0.1473
vn -0.7390 -0.6078 0.2906
vn -0.5341 -0.8092 -0.2449
vn 0.8515 0.5232 -0.0356
vn 0.9722 -0.2163 0.0900
vn -0.0010 -0.2883 0.9575
vn -0.8904 -0.3489 0.2924
vn 0.1663 -0.8800 -0.4449
vn 0.7332 0.6420 0.2242
vn 0.0819 0.8378 0.5398
vn 0.7795 0.6265 -0.0017
vn -0.8995 0.1712 0.4020
vn 0.3570 -0.6809 -0.6395
vn 0.6687 0.7435 -0.0101
vn 0.5431 0.8381 0.0515
usemtl Material.001
s off
f 62/1/1 68/2/1 71/3/1
f 65/4/2 4/5/2 7/6/2
f 6/7/3 26/8/3 27/9/3
f 27/9/4 26/8/4 2/10/4
f 6/7/5 3/11/5 4/5/5
f 28/12/6 64/13/6 29/14/6
f 3/11/7 27/9/7 10/15/7
f 55/16/8 20/17/8 63/18/8
f 30/19/9 54/20/9 6/7/9
f 30/19/10 65/4/10 5/21/10
f 55/16/11 67/22/11 50/23/11
f 63/24/12 78/25/12 64/26/12
f 29/27/13 31/28/13 7/29/13
f 33/30/14 83/31/14 84/32/14
f 4/5/15 3/11/15 37/33/15
f 29/27/16 77/34/16 34/35/16
f 29/27/17 35/36/17 77/34/17
f 29/14/18 34/37/18 36/38/18
f 38/39/19 34/37/19 39/40/19
f 25/41/20 28/12/20 40/42/20
f 25/41/21 40/42/21 41/43/21
f 40/44/22 3/45/22 43/46/22
f 43/46/23 12/47/23 42/48/23
f 43/49/24 10/15/24 11/50/24
f 67/22/25 25/41/25 45/51/25
f 24/52/26 67/22/26 45/51/26
f 26/8/27 66/53/27 69/54/27
f 25/55/28 46/56/28 45/57/28
f 69/54/29 47/58/29 48/59/29
f 45/57/30 46/56/30 70/60/30
f 45/51/31 22/61/31 47/58/31
f 74/62/32 52/63/32 62/1/32
f 49/64/33 62/1/33 73/65/33
f 19/66/34 63/24/34 20/67/34
f 52/63/35 56/68/35 59/69/35
f 5/21/36 15/70/36 56/68/36
f 54/20/37 56/68/37 52/63/37
f 54/20/38 30/19/38 56/68/38
f 55/16/39 53/71/39 16/72/39
f 57/73/40 23/74/40 58/75/40
f 18/76/41 60/77/41 17/78/41
f 72/79/42 60/77/42 23/74/42
f 72/79/43 57/73/43 59/80/43
f 15/81/44 18/76/44 17/78/44
f 72/82/45 15/70/45 17/83/45
f 51/84/46 55/16/46 18/85/46
f 59/69/47 56/68/47 79/86/47
f 75/87/48 61/88/48 73/65/48
f 71/3/49 75/87/49 62/1/49
f 49/64/50 73/65/50 61/88/50
f 55/16/51 63/18/51 64/13/51
f 67/22/52 64/13/52 28/12/52
f 30/19/53 6/7/53 65/4/53
f 6/7/54 54/20/54 26/8/54
f 54/20/55 52/63/55 66/53/55
f 50/23/56 67/22/56 21/89/56
f 21/89/57 24/52/57 66/53/57
f 50/23/58 61/88/58 75/87/58
f 71/3/59 50/23/59 75/87/59
f 18/76/60 16/90/60 60/77/60
f 60/77/61 58/75/61 23/74/61
f 21/89/62 74/62/62 49/64/62
f 47/58/63 22/91/63 13/92/63
f 25/55/64 2/93/64 46/56/64
f 11/94/65 41/95/65 42/48/65
f 36/96/66 38/97/66 9/98/66
f 38/97/67 39/99/67 76/100/67
f 29/27/68 4/101/68 35/36/68
f 78/25/69 1/102/69 33/30/69
f 31/28/70 8/103/70 32/104/70
f 5/105/71 51/106/71 15/81/71
f 3/45/72 28/107/72 36/96/72
f 66/53/73 24/52/73 44/108/73
f 71/3/74 53/71/74 50/23/74
f 68/2/75 62/1/75 52/63/75
f 55/16/76 51/84/76 20/17/76
f 65/4/77 7/6/77 1/109/77
f 6/7/78 27/9/78 3/11/78
f 6/7/79 4/5/79 65/4/79
f 28/12/80 25/41/80 67/22/80
f 3/11/81 10/15/81 43/49/81
f 53/71/82 55/16/82 50/23/82
f 21/89/83 14/110/83 50/23/83
f 19/66/84 5/105/84 65/111/84
f 64/13/85 31/112/85 29/14/85
f 19/66/86 78/25/86 63/24/86
f 29/27/87 7/29/87 4/101/87
f 1/109/88 7/6/88 33/113/88
f 7/6/89 32/114/89 33/113/89
f 64/13/90 8/115/90 31/112/90
f 78/25/91 8/116/91 64/26/91
f 77/34/92 39/99/92 34/35/92
f 77/34/93 76/100/93 39/99/93
f 37/33/94 35/117/94 4/5/94
f 29/14/95 36/38/95 28/12/95
f 37/33/96 9/118/96 35/117/96
f 35/117/97 9/118/97 77/119/97
f 36/38/98 34/37/98 38/39/98
f 3/45/99 40/44/99 28/107/99
f 2/93/100 10/120/100 27/121/100
f 25/55/101 10/120/101 2/93/101
f 40/42/102 42/122/102 41/43/102
f 40/44/103 43/46/103 42/48/103
f 43/49/104 11/50/104 12/123/104
f 46/124/105 48/59/105 70/125/105
f 48/59/106 13/92/106 70/125/106
f 24/52/107 45/51/107 44/108/107
f 26/8/108 69/54/108 46/124/108
f 26/8/109 46/124/109 2/10/109
f 69/54/110 48/59/110 46/124/110
f 13/92/111 22/91/111 70/60/111
f 47/58/112 13/92/112 48/59/112
f 45/57/113 70/60/113 22/91/113
f 45/51/114 47/58/114 44/108/114
f 74/62/115 62/1/115 49/64/115
f 55/16/116 16/72/116 18/85/116
f 52/63/117 59/69/117 57/126/117
f 30/19/118 5/21/118 56/68/118
f 60/77/119 72/79/119 17/78/119
f 23/74/120 57/73/120 72/79/120
f 68/2/121 58/75/121 53/71/121
f 15/70/122 72/82/122 80/127/122
f 53/71/123 58/128/123 16/72/123
f 14/110/124 61/88/124 50/23/124
f 75/87/125 73/65/125 62/1/125
f 49/64/126 61/88/126 14/110/126
f 1/102/127 19/66/127 65/111/127
f 55/16/128 64/13/128 67/22/128
f 52/63/129 74/62/129 66/53/129
f 54/20/130 66/53/130 26/8/130
f 67/22/131 24/52/131 21/89/131
f 21/89/132 66/53/132 74/62/132
f 15/81/133 51/106/133 18/76/133
f 68/2/134 52/63/134 57/73/134
f 68/2/135 57/73/135 58/75/135
f 16/90/136 58/75/136 60/77/136
f 5/129/137 19/66/137 20/67/137
f 21/89/138 49/64/138 14/110/138
f 44/108/139 47/58/139 69/54/139
f 11/94/140 42/48/140 12/47/140
f 25/55/141 41/95/141 10/120/141
f 41/95/142 11/94/142 10/120/142
f 36/96/143 9/98/143 37/130/143
f 38/97/144 76/100/144 9/98/144
f 77/34/145 9/131/145 76/100/145
f 33/113/146 32/114/146 82/132/146
f 19/66/147 1/102/147 78/25/147
f 31/28/148 32/104/148 7/29/148
f 20/133/149 51/106/149 5/105/149
f 3/45/150 36/96/150 37/130/150
f 66/53/151 44/108/151 69/54/151
f 68/2/152 53/71/152 71/3/152
f 72/82/153 59/80/153 80/127/153
f 81/134/154 84/32/154 83/31/154
f 81/135/155 83/136/155 82/137/155
f 8/103/156 81/135/156 82/137/156
f 8/116/157 78/25/157 84/32/157
f 33/30/158 84/32/158 78/25/158
f 33/113/159 82/132/159 83/138/159
f 59/80/160 79/86/160 80/127/160
f 8/103/161 82/137/161 32/104/161
f 8/116/162 84/32/162 81/134/162
f 80/127/163 79/86/163 15/70/163
f 15/70/164 79/86/164 56/68/164
