# Blender v2.83.5 OBJ File: ''
# www.blender.org
mtllib untitled.mtl
o Icosphere
v -0.235241 -0.700735 -0.724007
v 0.003618 0.523793 0.892291
v -0.847501 0.523790 0.279175
v -0.527408 0.523791 -0.719748
v 0.521546 0.523791 -0.724008
v 0.849739 0.523791 0.272290
v 0.088470 0.994276 -0.272289
v -0.088470 -0.994276 0.272289
v -0.003618 -0.523793 0.892291
v 0.847501 -0.523790 0.279175
v 0.418908 -0.957649 0.000000
v -0.849739 -0.523791 0.272290
v -0.704983 -0.731402 -0.246228
v 0.527408 -0.523791 -0.719748
v 1.043889 0.053589 -0.000000
v 0.322581 0.053590 0.992798
v -0.587786 0.000000 0.809017
v -0.587786 0.000000 -0.809017
v -1.043889 -0.053590 -0.000000
v 0.322581 0.053590 -0.992798
v 0.338902 0.957651 0.246226
v -0.418907 0.957649 -0.000000
vt 0.272727 0.000000
vt 0.250000 0.118096
vt 0.340601 0.117562
vt 0.454545 0.000000
vt 0.386671 0.117562
vt 0.500000 0.078731
vt 0.318182 0.236191
vt 0.681202 0.157461
vt 0.636363 0.236191
vt 0.818181 0.236191
vt 0.863020 0.157461
vt 0.954545 0.236191
vt 0.454545 0.236191
vt 0.499383 0.157461
vt 0.864252 0.314921
vt 0.682434 0.314921
vt 0.727272 0.393651
vt 1.000000 0.314921
vt 0.954545 0.393651
vt 0.318798 0.314921
vt 0.136979 0.314921
vt 0.181818 0.393651
vt 0.500616 0.314921
vt 0.386671 0.432483
vt 0.590909 0.393651
vt 0.522419 0.432483
vt 0.318182 0.393651
vt 0.863635 0.393651
vt 0.909090 0.472382
vt 0.181818 0.236191
vt 0.135747 0.157461
vt 0.045454 0.236191
vt 0.000000 0.157461
vt 0.136363 0.078731
vt 0.067874 0.039899
vt 0.636363 0.078731
vt 0.841216 0.039899
vt 0.772726 0.078731
vn -0.1933 -0.9485 -0.2510
vn -0.0764 -0.9594 -0.2714
vn -0.6401 -0.4015 -0.6551
vn 0.8090 0.0090 0.5878
vn -0.1941 -0.0608 0.9791
vn -0.1818 -0.2080 -0.9611
vn 0.8090 0.0090 -0.5878
vn 0.4741 0.5971 0.6470
vn -0.3933 0.7398 0.5459
vn -0.7639 0.5971 -0.2448
vn -0.0029 0.6912 -0.7227
vn 0.6391 0.7398 -0.2105
vn 0.5941 0.7701 -0.2325
vn -0.3057 0.8351 -0.4573
vn -0.0271 0.9961 0.0835
vn -0.1598 0.8559 0.4918
vn 0.8240 0.4974 -0.2714
vn 0.8090 -0.0063 -0.5878
vn -0.0035 0.4974 -0.8675
vn -0.2050 0.1874 -0.9607
vn -0.8614 0.4264 -0.2760
vn -0.5162 0.4689 0.7166
vn -0.2014 0.0721 0.9768
vn 0.5128 0.4974 0.6998
vn 0.8090 -0.0063 0.5878
vn 0.0972 -0.3971 -0.9126
vn -0.8619 0.1801 -0.4740
vn -0.8383 -0.2417 -0.4886
vn -0.9031 -0.4212 -0.0835
vn -0.8712 0.0608 0.4871
vn -0.8668 -0.0721 0.4934
vn -0.5220 -0.4689 0.7124
vn 0.5287 -0.4264 0.7339
vn 0.8614 -0.4264 -0.2760
vn 0.2004 -0.8521 -0.4834
vn -0.5161 -0.8351 0.1903
vn -0.4272 -0.6912 0.5829
vn 0.7639 -0.5971 -0.2448
vn 0.3439 -0.7701 0.5373
vn 0.3933 -0.7398 0.5459
usemtl None
s off
f 8/1/1 13/2/1 1/3/1
f 8/4/2 1/5/2 11/6/2
f 1/3/3 13/2/3 18/7/3
f 10/8/4 15/9/4 16/10/4
f 9/11/5 16/10/5 17/12/5
f 1/3/6 18/7/6 20/13/6
f 14/14/7 20/13/7 15/9/7
f 2/15/8 6/16/8 21/17/8
f 3/18/9 2/15/9 22/19/9
f 4/20/10 3/21/10 22/22/10
f 5/23/11 4/20/11 7/24/11
f 6/16/12 5/23/12 21/25/12
f 21/25/13 5/23/13 7/26/13
f 7/24/14 4/20/14 22/27/14
f 22/19/15 21/28/15 7/29/15
f 22/19/16 2/15/16 21/28/16
f 15/9/17 5/23/17 6/16/17
f 15/9/18 20/13/18 5/23/18
f 20/13/19 4/20/19 5/23/19
f 20/13/20 18/7/20 4/20/20
f 19/30/21 3/21/21 4/20/21
f 17/12/22 2/15/22 3/18/22
f 17/12/23 16/10/23 2/15/23
f 16/10/24 6/16/24 2/15/24
f 16/10/25 15/9/25 6/16/25
f 14/14/26 1/3/26 20/13/26
f 18/7/27 19/30/27 4/20/27
f 18/7/28 13/2/28 19/30/28
f 13/2/29 12/31/29 19/30/29
f 19/30/30 17/32/30 3/21/30
f 19/30/31 12/31/31 17/32/31
f 12/31/32 9/33/32 17/32/32
f 9/11/33 10/8/33 16/10/33
f 10/8/34 14/14/34 15/9/34
f 11/6/35 1/5/35 14/14/35
f 13/34/36 8/35/36 12/31/36
f 8/35/37 9/33/37 12/31/37
f 10/8/38 11/36/38 14/14/38
f 8/37/39 11/38/39 9/11/39
f 11/38/40 10/8/40 9/11/40
